<svg width="24" height="24" viewBox="0 0 24 24" fill="none" xmlns="http://www.w3.org/2000/svg">
    <!-- Icono de modo oscuro -->
    <symbol id="dark-mode" viewBox="0 0 24 24">
        <path d="M12 2C16.97 2 21 5.03 21 9c0 4.97-4.03 9-9 9s-9-4.03-9-9c0-3.87 3.13-7 7-7s7 3.13 7 7zM12 10c-1.66 0-3 1.34-3 3s1.34 3 3 3 3-1.34 3-3-1.34-3-3-3zm0 4c-1.1 0-2-.9-2-2s.9-2 2-2 2 .9 2 2-.9 2-2 2z" fill="currentColor"/>
    </symbol>
    <!-- Icono de modo claro -->
    <symbol id="light-mode" viewBox="0 0 24 24">
        <path d="M12 2C6.48 2 2 6.48 2 12s4.48 10 10 10 10-4.48 10-10S17.52 2 12 2zm0 18c-4.42 0-8-3.58-8-8s3.58-8 8-8 8 3.58 8 8-3.58 8-8 8zm3.5-9c.83 0 1.5-.67 1.5-1.5S16.33 9 15.5 9 14 9.67 14 10.5 14.67 12 15.5 12zm-7 0c.83 0 1.5-.67 1.5-1.5S9.33 9 8.5 9 7 9.67 7 10.5 7.67 12 8.5 12zm3.5 3.5c2.33 0 4.31-1.46 5.11-3.5H13.9c-.8 1.29-2.23 2.25-3.9 2.25-2.57 0-4.67-1.94-4.77-4.45h1.3c.08 1.47 1.55 2.6 3.4 2.6s3.33-1.13 3.4-2.6h1.27zM12 5c1.94 0 3.44 1.5 3.55 3.4H10.45c.12-1.87 1.62-3.4 3.55-3.4z" fill="currentColor"/>
    </symbol>
</svg>
